<svg width="90" height="90" viewBox="0 0 90 90" fill="none" xmlns="http://www.w3.org/2000/svg">
<g clip-path="url(#clip0)">
<path fill-rule="evenodd" clip-rule="evenodd" d="M0 45C0 69.8529 20.1471 89.9985 45 89.9985C69.8529 89.9985 90 69.8529 90 45C90 20.1471 69.8529 0 45 0C20.1471 0 0 20.1486 0 45Z" fill="#274B8D"/>
<path fill-rule="evenodd" clip-rule="evenodd" d="M26.4373 24.0041C26.4685 24.0145 30.9869 25.4028 35.9527 22.6501C40.9379 19.884 42.1447 15.2839 42.1447 15.2839C42.1447 15.2839 37.1507 14.129 32.6233 16.6453C28.1703 19.1097 26.4922 23.8243 26.4373 23.9863" fill="white"/>
<path fill-rule="evenodd" clip-rule="evenodd" d="M33.0975 36.5235C33.0217 36.0969 31.953 30.4533 27.231 26.7554C22.3246 22.9103 16.082 23.2298 16.082 23.2298C16.082 23.2298 16.5577 28.8139 21.9545 33.0425C27.3201 37.2414 33.0202 36.5755 33.099 36.5636" fill="white"/>
<path d="M21.3006 50.4801V56.9471H16.7301V50.4801L10.3107 39.3728H15.6287L19.0027 45.2304L22.4005 39.3728H27.72L21.3006 50.4801Z" fill="white"/>
<path d="M34.3044 39.3728H29.6893V56.9471H34.3044V39.3728Z" fill="white"/>
<path d="M37.8433 39.3728H48.7648V43.1926H42.4613V46.0508H48.0365V49.9405H42.4613V53.1733H48.7648V56.9471H37.8433V39.3728Z" fill="white"/>
<path d="M52.0675 39.3728H56.684V52.3083H63.0098V56.9471H52.0675V39.3728Z" fill="white"/>
<path d="M66.3154 39.3728H72.8285C77.6799 39.3728 81.6157 43.3101 81.6157 48.16C81.6157 53.0113 77.6799 56.9486 72.8285 56.9486H66.3154V39.3728ZM70.9082 52.3544H72.8523C75.1487 52.3544 77.0229 50.4786 77.0229 48.1837C77.0229 45.9111 75.1487 44.0354 72.8523 44.0354H70.9082V52.3544Z" fill="white"/>
<path d="M41.2426 36.0791H40.3121V27.5149H36.9634V26.5859H44.6046V27.5149H41.2426V36.0791Z" fill="white"/>
<path d="M53.8957 36.0791H52.9668V31.6974H46.7257V36.0791H45.7967V26.5859H46.7257V30.7684H52.9668V26.5859H53.8957V36.0791Z" fill="white"/>
<path d="M61.5473 36.0791H55.3702V26.5859H61.5473V27.5268H56.2976V30.7565H61.1846V31.6974H56.2976V35.1382H61.5473V36.0791Z" fill="white"/>
<path d="M26.956 65.4638H26.6023V60.7789H24.9733V60.4504H28.5836V60.7789H26.9546V65.4638H26.956Z" fill="white" stroke="white" stroke-width="0.25" stroke-miterlimit="10"/>
<path d="M32.069 65.4638H29.3297V60.4504H32.069V60.7729H29.679V62.6695H31.9352V62.992H29.679V65.1427H32.069V65.4638Z" fill="white" stroke="white" stroke-width="0.25" stroke-miterlimit="10"/>
<path d="M35.3434 60.6941C34.7147 60.6941 34.2197 60.8948 33.8585 61.2976C33.4974 61.7004 33.316 62.2503 33.316 62.9504C33.316 63.6653 33.487 64.2212 33.8273 64.6166C34.1677 65.012 34.6552 65.2097 35.2884 65.2097C35.709 65.2097 36.0955 65.1561 36.4477 65.0491V65.3583C36.1163 65.4742 35.7031 65.5337 35.2066 65.5337C34.5021 65.5337 33.9477 65.3063 33.5434 64.8514C33.1392 64.3966 32.937 63.7605 32.937 62.9445C32.937 62.4346 33.0336 61.9858 33.2268 61.5963C33.4201 61.2084 33.698 60.9082 34.0607 60.6956C34.4233 60.4846 34.844 60.379 35.3241 60.379C35.8131 60.379 36.2515 60.4712 36.638 60.654L36.4968 60.9691C36.1296 60.7863 35.7462 60.6941 35.3434 60.6941Z" fill="white" stroke="white" stroke-width="0.25" stroke-miterlimit="10"/>
<path d="M41.1965 65.4638H40.8428V62.9979H37.9147V65.4638H37.5654V60.4504H37.9147V62.6754H40.8428V60.4504H41.1965V65.4638Z" fill="white" stroke="white" stroke-width="0.25" stroke-miterlimit="10"/>
<path d="M46.2619 65.4638H45.9081L42.9385 61.0122H42.9117C42.9385 61.5428 42.9533 61.9427 42.9533 62.2132V65.4638H42.6174V60.4504H42.9667L45.9334 64.8945H45.9542C45.9334 64.4828 45.923 64.0919 45.923 63.7218V60.4504H46.2619V65.4638Z" fill="white" stroke="white" stroke-width="0.25" stroke-miterlimit="10"/>
<path d="M51.8966 62.9504C51.8966 63.7456 51.6974 64.3758 51.3006 64.838C50.9022 65.3017 50.3538 65.5321 49.6552 65.5321C48.9581 65.5321 48.4097 65.3002 48.0128 64.838C47.6145 64.3758 47.4168 63.7441 47.4168 62.943C47.4168 62.1448 47.6175 61.5176 48.0188 61.0583C48.4201 60.5991 48.9685 60.3702 49.6626 60.3702C50.3627 60.3702 50.9097 60.6006 51.305 61.0613C51.6989 61.5235 51.8966 62.1537 51.8966 62.9504ZM47.7943 62.9504C47.7943 63.6683 47.9549 64.2227 48.2744 64.6151C48.594 65.0074 49.0533 65.2036 49.6522 65.2036C50.2557 65.2036 50.7165 65.0089 51.036 64.621C51.3556 64.2331 51.5146 63.6757 51.5146 62.9504C51.5146 62.2281 51.3556 61.6737 51.036 61.2887C50.7165 60.9038 50.2587 60.7105 49.6597 60.7105C49.0637 60.7105 48.6029 60.9052 48.2789 61.2932C47.9563 61.6841 47.7943 62.2355 47.7943 62.9504Z" fill="white" stroke="white" stroke-width="0.25" stroke-miterlimit="10"/>
<path d="M53.0485 65.4638V60.4504H53.3977V65.1353H55.7878V65.4638H53.0485Z" fill="white" stroke="white" stroke-width="0.25" stroke-miterlimit="10"/>
<path d="M60.8666 62.9504C60.8666 63.7456 60.6674 64.3758 60.2706 64.838C59.8722 65.3017 59.3238 65.5321 58.6252 65.5321C57.9281 65.5321 57.3796 65.3002 56.9828 64.838C56.5845 64.3758 56.3868 63.7441 56.3868 62.943C56.3868 62.1448 56.5874 61.5176 56.9887 61.0583C57.3901 60.5991 57.9385 60.3702 58.6326 60.3702C59.3327 60.3702 59.8796 60.6006 60.275 61.0613C60.6689 61.5235 60.8666 62.1537 60.8666 62.9504ZM56.7658 62.9504C56.7658 63.6683 56.9263 64.2227 57.2459 64.6151C57.5654 65.0074 58.0247 65.2036 58.6237 65.2036C59.2272 65.2036 59.6879 65.0089 60.0075 64.621C60.327 64.2331 60.4861 63.6757 60.4861 62.9504C60.4861 62.2281 60.327 61.6737 60.0075 61.2887C59.6879 60.9038 59.2301 60.7105 58.6311 60.7105C58.0351 60.7105 57.5744 60.9052 57.2503 61.2932C56.9278 61.6841 56.7658 62.2355 56.7658 62.9504Z" fill="white" stroke="white" stroke-width="0.25" stroke-miterlimit="10"/>
<path d="M63.9908 62.937H65.8398V65.2245C65.3552 65.4296 64.8098 65.5337 64.2048 65.5337C63.4141 65.5337 62.8077 65.3107 62.3856 64.8633C61.9634 64.4159 61.7524 63.7842 61.7524 62.9653C61.7524 62.4554 61.8564 62.0036 62.066 61.6097C62.2756 61.2158 62.5743 60.9111 62.9637 60.6956C63.3532 60.4801 63.8005 60.3731 64.3059 60.3731C64.8529 60.3731 65.3434 60.4741 65.7774 60.6748L65.6362 60.9899C65.2022 60.7893 64.7518 60.6882 64.2851 60.6882C63.6252 60.6882 63.1005 60.8918 62.7125 61.3006C62.3246 61.7093 62.1314 62.2592 62.1314 62.9519C62.1314 63.7069 62.3157 64.2732 62.6828 64.6552C63.0514 65.0357 63.591 65.226 64.3044 65.226C64.7667 65.226 65.159 65.1606 65.4801 65.0313V63.2685H63.9878V62.937H63.9908Z" fill="white" stroke="white" stroke-width="0.25" stroke-miterlimit="10"/>
<path d="M68.2491 63.1941L69.7176 60.4504H70.0951L68.4245 63.5271V65.4652H68.0648V63.5553L66.3882 60.4519H66.7895L68.2491 63.1941Z" fill="white" stroke="white" stroke-width="0.25" stroke-miterlimit="10"/>
<path d="M39.5496 70.596C39.5496 71.0151 39.3965 71.3451 39.0889 71.5904C38.7812 71.8356 38.3725 71.9575 37.8627 71.9575C37.2503 71.9575 36.7806 71.8906 36.4536 71.7553V71.406C36.8148 71.5591 37.2756 71.6364 37.8359 71.6364C38.2476 71.6364 38.5731 71.5428 38.8154 71.354C39.0562 71.1653 39.1766 70.9185 39.1766 70.6109C39.1766 70.4206 39.1364 70.2646 39.0562 70.1397C38.9759 70.0148 38.8451 69.9019 38.6653 69.7993C38.4839 69.6968 38.2194 69.5853 37.8701 69.4664C37.3573 69.291 37.0036 69.1008 36.8088 68.8956C36.6141 68.6905 36.516 68.4185 36.516 68.0782C36.516 67.7036 36.6632 67.3974 36.956 67.1611C37.2503 66.9248 37.6278 66.8059 38.0886 66.8059C38.5597 66.8059 39.0012 66.8951 39.4159 67.0734L39.2895 67.3751C38.8734 67.2012 38.475 67.115 38.096 67.115C37.7259 67.115 37.4301 67.2012 37.2116 67.3722C36.9917 67.5431 36.8832 67.7764 36.8832 68.0722C36.8832 68.258 36.9173 68.4096 36.9842 68.5285C37.0511 68.6474 37.1626 68.7544 37.3157 68.8496C37.4688 68.9447 37.7319 69.0577 38.1049 69.1914C38.4958 69.3267 38.7901 69.4575 38.9863 69.5838C39.1825 69.7102 39.3267 69.8543 39.4173 70.0163C39.5036 70.1724 39.5496 70.3671 39.5496 70.596Z" fill="white" stroke="white" stroke-width="0.25" stroke-miterlimit="10"/>
<path d="M44.8231 69.3757C44.8231 70.1709 44.6239 70.8011 44.2271 71.2633C43.8288 71.7271 43.2803 71.9575 42.5817 71.9575C41.8846 71.9575 41.3362 71.7256 40.9393 71.2633C40.541 70.8011 40.3433 70.1694 40.3433 69.3683C40.3433 68.5701 40.544 67.9429 40.9453 67.4836C41.3466 67.0258 41.895 66.7954 42.5892 66.7954C43.2892 66.7954 43.8362 67.0258 44.2316 67.4866C44.6254 67.9488 44.8231 68.5775 44.8231 69.3757ZM40.7223 69.3757C40.7223 70.0936 40.8829 70.648 41.2024 71.0404C41.522 71.4328 41.9813 71.629 42.5802 71.629C43.1837 71.629 43.6445 71.4343 43.964 71.0463C44.2836 70.6584 44.4426 70.101 44.4426 69.3757C44.4426 68.6533 44.2836 68.0989 43.964 67.714C43.6445 67.329 43.1867 67.1358 42.5877 67.1358C41.9917 67.1358 41.5309 67.3305 41.2069 67.7184C40.8829 68.1078 40.7223 68.6593 40.7223 69.3757Z" fill="white" stroke="white" stroke-width="0.25" stroke-miterlimit="10"/>
<path d="M45.975 71.8891V66.8757H46.3243V71.5606H48.7143V71.8891H45.975Z" fill="white" stroke="white" stroke-width="0.25" stroke-miterlimit="10"/>
<path d="M53.2654 66.8757V70.1204C53.2654 70.6971 53.0989 71.1474 52.7645 71.4714C52.4301 71.7955 51.9649 71.959 51.3688 71.959C50.7877 71.959 50.3344 71.7955 50.0089 71.47C49.6834 71.1445 49.5199 70.6896 49.5199 70.107V66.8772H49.8736V70.1219C49.8736 70.6049 50.0074 70.9795 50.2749 71.2485C50.5425 71.5175 50.9215 71.6513 51.4105 71.6513C51.8876 71.6513 52.2591 71.519 52.5222 71.2559C52.7853 70.9914 52.9161 70.6257 52.9161 70.1575V66.8787H53.2654V66.8757Z" fill="white" stroke="white" stroke-width="0.25" stroke-miterlimit="10"/>
<path d="M55.9364 71.8891H55.5826V67.2042H53.9536V66.8757H57.5639V67.2042H55.9349V71.8891H55.9364Z" fill="white" stroke="white" stroke-width="0.25" stroke-miterlimit="10"/>
<path d="M58.3101 71.8891V66.8757H58.6593V71.8891H58.3101Z" fill="white" stroke="white" stroke-width="0.25" stroke-miterlimit="10"/>
<path d="M64.294 69.3757C64.294 70.1709 64.0948 70.8011 63.698 71.2633C63.2996 71.7271 62.7512 71.9575 62.0526 71.9575C61.3555 71.9575 60.8071 71.7256 60.4102 71.2633C60.0119 70.8011 59.8142 70.1694 59.8142 69.3683C59.8142 68.5701 60.0149 67.9429 60.4162 67.4836C60.8175 67.0243 61.3659 66.7954 62.06 66.7954C62.7601 66.7954 63.3071 67.0258 63.7024 67.4866C64.0963 67.9488 64.294 68.5775 64.294 69.3757ZM60.1917 69.3757C60.1917 70.0936 60.3523 70.648 60.6718 71.0404C60.9914 71.4328 61.4507 71.629 62.0496 71.629C62.6531 71.629 63.1138 71.4343 63.4334 71.0463C63.753 70.6584 63.912 70.101 63.912 69.3757C63.912 68.6533 63.753 68.0989 63.4334 67.714C63.1138 67.329 62.6561 67.1358 62.0571 67.1358C61.4611 67.1358 61.0003 67.3305 60.6763 67.7184C60.3537 68.1078 60.1917 68.6593 60.1917 69.3757Z" fill="white" stroke="white" stroke-width="0.25" stroke-miterlimit="10"/>
<path d="M69.0903 71.8891H68.7366L65.7669 67.4376H65.7402C65.7669 67.9682 65.7818 68.368 65.7818 68.6385V71.8891H65.4459V66.8757H65.7951L68.7619 71.3198H68.7827C68.7619 70.9081 68.7514 70.5172 68.7514 70.1471V66.8757H69.0903V71.8891Z" fill="white" stroke="white" stroke-width="0.25" stroke-miterlimit="10"/>
<path d="M73.2774 70.596C73.2774 71.0151 73.1228 71.3451 72.8166 71.5904C72.5089 71.8356 72.1002 71.9575 71.5904 71.9575C70.978 71.9575 70.5083 71.8906 70.1813 71.7553V71.406C70.5425 71.5591 71.0033 71.6364 71.5636 71.6364C71.9753 71.6364 72.3008 71.5428 72.5431 71.354C72.7839 71.1653 72.9043 70.9185 72.9043 70.6109C72.9043 70.4206 72.8642 70.2646 72.7839 70.1397C72.7036 70.0148 72.5728 69.9019 72.393 69.7993C72.2131 69.6968 71.9471 69.5853 71.5978 69.4664C71.085 69.291 70.7313 69.1008 70.5366 68.8956C70.3404 68.6905 70.2438 68.4185 70.2438 68.0782C70.2438 67.7036 70.3909 67.3974 70.6837 67.1611C70.9765 66.9248 71.3555 66.8059 71.8178 66.8059C72.2889 66.8059 72.7304 66.8951 73.1451 67.0734L73.0187 67.3751C72.6026 67.2012 72.2042 67.115 71.8252 67.115C71.4551 67.115 71.1593 67.2012 70.9408 67.3722C70.7209 67.5431 70.6124 67.7764 70.6124 68.0722C70.6124 68.258 70.6466 68.4096 70.7134 68.5285C70.7803 68.6474 70.8918 68.7544 71.0449 68.8496C71.198 68.9447 71.4611 69.0577 71.8341 69.1914C72.225 69.3267 72.5193 69.4575 72.7155 69.5838C72.9117 69.7102 73.0559 69.8543 73.1466 70.0163C73.2328 70.1724 73.2774 70.3671 73.2774 70.596Z" fill="white" stroke="white" stroke-width="0.25" stroke-miterlimit="10"/>
<path d="M82.3989 82.9013C82.3989 84.2449 81.3451 85.2987 79.9732 85.2987C78.6162 85.2987 77.5342 84.2449 77.5342 82.9013C77.5342 81.5874 78.6177 80.5336 79.9732 80.5336C81.3451 80.5336 82.3989 81.5874 82.3989 82.9013ZM78.1391 82.9013C78.1391 83.9566 78.9194 84.7934 79.9866 84.7934C81.027 84.7934 81.791 83.9566 81.791 82.9176C81.791 81.8623 81.027 81.0122 79.9717 81.0122C78.9209 81.0107 78.1391 81.8623 78.1391 82.9013ZM79.5987 84.1439H79.0502V81.7761C79.2672 81.733 79.5704 81.7033 79.9599 81.7033C80.4072 81.7033 80.6094 81.7761 80.7833 81.8772C80.9126 81.9768 81.0137 82.1656 81.0137 82.3974C81.0137 82.6575 80.8115 82.8597 80.5232 82.9459V82.9756C80.7536 83.0633 80.8843 83.2357 80.9557 83.5523C81.0285 83.9135 81.0716 84.0577 81.1296 84.1454H80.5365C80.4652 84.0577 80.4206 83.8421 80.3478 83.5672C80.3062 83.3071 80.1605 83.1926 79.8573 83.1926H79.5972V84.1439H79.5987ZM79.6121 82.8017H79.8722C80.1754 82.8017 80.4206 82.7006 80.4206 82.4554C80.4206 82.2384 80.2616 82.0942 79.9153 82.0942C79.7711 82.0942 79.67 82.1076 79.6121 82.1225V82.8017Z" fill="#274B8D"/>
</g>
<defs>
<clipPath id="clip0">
<rect width="90" height="89.9985" fill="white"/>
</clipPath>
</defs>
</svg>
