<?xml version="1.0" encoding="utf-8"?>
<!-- Generator: Adobe Illustrator 22.0.1, SVG Export Plug-In . SVG Version: 6.00 Build 0)  -->
<svg version="1.1" xmlns="http://www.w3.org/2000/svg" xmlns:xlink="http://www.w3.org/1999/xlink" x="0px" y="0px"
	 viewBox="0 0 507.311 165.614" style="enable-background:new 0 0 507.311 165.614;" xml:space="preserve">
<style type="text/css">
	.st0{fill:#000000;}
	.st1{fill:url(#SVGID_1_);}
	.st2{fill:url(#SVGID_2_);}
	.st3{fill:url(#SVGID_3_);}
	.st4{fill:url(#SVGID_4_);}
	.st5{fill:url(#SVGID_5_);}
	.st6{fill:url(#SVGID_6_);}
	.st7{fill:url(#SVGID_7_);}
	.st8{fill:url(#SVGID_8_);}
</style>
<g id="Layer_1">
</g>
<g id="Layer_3">
</g>
<g id="Layer_4">
	<g>
		<g>
			<path class="st0" d="M177.665,63.387c2.249,0,3.053,0.697,3.053,2.942v4.492c0,2.246-0.803,2.942-3.053,2.942
				c-5.223,0-7.312,1.858-7.312,6.427v0.232h7.392c2.169,0,2.973,0.697,2.973,2.865v4.646c0,2.168-0.803,2.865-2.973,2.865h-7.392
				v27.026c0,2.168-0.723,2.865-3.053,2.865h-6.106c-2.25,0-2.973-0.697-2.973-2.865V90.8h-3.535c-2.169,0-2.893-0.697-2.893-2.865
				v-4.646c0-2.168,0.723-2.865,2.893-2.865h3.535v-0.232c0-11.073,6.106-16.649,18.399-16.804H177.665z"/>
			<path class="st0" d="M183.61,95.601c0-10.299,6.668-16.34,19.122-16.34c12.534,0,19.202,6.041,19.202,16.34v9.989
				c0,10.3-6.668,16.262-19.202,16.262c-12.453,0-19.122-6.04-19.122-16.262V95.601z M209.802,95.446c0-3.872-2.33-5.808-7.07-5.808
				c-4.66,0-6.99,1.936-6.99,5.808v10.222c0,3.872,2.33,5.809,6.99,5.809c4.74,0,7.07-1.937,7.07-5.809V95.446z"/>
			<path class="st0" d="M227.558,95.601c0-10.299,6.668-16.34,19.122-16.34c12.533,0,19.202,6.041,19.202,16.34v9.989
				c0,10.3-6.669,16.262-19.202,16.262c-12.453,0-19.122-6.04-19.122-16.262V95.601z M253.75,95.446c0-3.872-2.33-5.808-7.07-5.808
				c-4.66,0-6.99,1.936-6.99,5.808v10.222c0,3.872,2.33,5.809,6.99,5.809c4.74,0,7.07-1.937,7.07-5.809V95.446z"/>
			<path class="st0" d="M271.587,96.066c0-10.919,5.946-16.805,17.434-16.805c2.169,0,4.58,0.155,7.391,0.465V66.252
				c0-2.168,0.723-2.865,2.973-2.865h6.187c2.25,0,2.973,0.697,2.973,2.865v48.708c0,2.556-0.562,3.252-3.214,4.259
				c-4.419,1.781-9.641,2.633-15.827,2.633c-11.971,0-17.917-5.343-17.917-16.029V96.066z M296.412,90.18
				c-2.008-0.31-3.856-0.465-5.382-0.465c-4.902,0-7.311,2.091-7.311,6.351v9.68c0,3.64,2.49,5.652,6.748,5.652
				c2.33,0,4.178-0.154,5.705-0.542c0.16-0.077,0.24-0.154,0.24-0.387V90.18z"/>
			<path class="st0" d="M332.888,79.881c5.865,0,9.883,1.394,12.213,4.104c2.249,2.71,3.374,6.427,3.374,10.996v20.367
				c0,2.71-0.642,3.484-2.893,4.413c-3.214,1.316-7.471,2.014-12.775,2.014c-6.588,0-11.088-0.929-13.498-2.865
				c-2.41-1.858-3.615-4.801-3.615-8.905c0-8.596,4.901-11.693,17.434-11.693c2.33,0,6.267,0.31,11.891,0.852v-4.259
				c0-7.511-2.892-12.003-12.292-12.003c-6.026,0-10.204,2.168-12.614,6.583c-0.321,0.464-0.722,0.619-1.286,0.387l-1.285-0.465
				c-0.643-0.31-0.803-0.774-0.482-1.316C320.033,82.592,325.255,79.881,332.888,79.881z M345.02,101.951
				c-5.864-0.542-9.963-0.852-12.212-0.852c-9.963,0-13.578,2.4-13.578,8.828c0,3.098,0.964,5.343,2.812,6.814
				c1.848,1.471,5.303,2.245,10.525,2.245c4.339,0,7.874-0.542,10.605-1.548c1.607-0.62,1.848-1.007,1.848-2.865V101.951z"/>
			<path class="st0" d="M357.633,95.524c0-10.455,5.624-15.643,16.872-15.643c5.062,0,9.401,0.774,13.177,2.246
				c2.57,1.162,3.133,1.781,3.133,4.259v37.17c0,11.151-5.543,16.727-16.631,16.727c-7.311,0-12.533-2.942-15.587-8.75
				c-0.401-0.697-0.241-1.162,0.402-1.472l1.125-0.542c0.562-0.31,1.045-0.155,1.446,0.387c2.49,4.724,6.027,7.357,12.534,7.357
				c8.837,0,13.257-4.492,13.257-13.552v-5.267c-4.58,1.859-9.32,2.788-14.301,2.788c-10.284,0-15.426-4.956-15.426-14.868V95.524z
				 M374.747,82.979c-9.079,0-13.658,4.182-13.658,12.623v10.687c0,7.976,4.097,11.925,12.372,11.925c4.5,0,9.159-0.929,13.9-2.864
				V87.315c0-1.549-0.322-1.858-2.009-2.556C382.058,83.598,378.523,82.979,374.747,82.979z"/>
			<path class="st0" d="M403.911,67.181c1.527,0,2.009,0.464,2.009,1.936v0.464c0,1.471-0.482,2.014-2.009,2.014h-0.401
				c-1.607,0-2.089-0.465-2.089-2.014v-0.464c0-1.472,0.482-1.936,2.089-1.936H403.911z M404.473,81.043
				c0.643,0,0.965,0.31,0.965,0.852v37.867c0,0.62-0.321,0.93-0.965,0.93h-1.607c-0.562,0-0.884-0.31-0.884-0.93V81.895
				c0-0.542,0.321-0.852,0.884-0.852H404.473z"/>
			<path class="st0" d="M420.462,119.761c0,0.62-0.321,0.93-0.885,0.93h-1.606c-0.563,0-0.885-0.31-0.885-0.93V64.316
				c0-0.62,0.321-0.929,0.885-0.929h1.606c0.563,0,0.885,0.31,0.885,0.929V119.761z"/>
			<path class="st0" d="M434.119,67.181c1.527,0,2.009,0.464,2.009,1.936v0.464c0,1.471-0.482,2.014-2.009,2.014h-0.401
				c-1.607,0-2.089-0.465-2.089-2.014v-0.464c0-1.472,0.482-1.936,2.089-1.936H434.119z M434.681,81.043
				c0.643,0,0.965,0.31,0.965,0.852v37.867c0,0.62-0.321,0.93-0.965,0.93h-1.607c-0.562,0-0.884-0.31-0.884-0.93V81.895
				c0-0.542,0.321-0.852,0.884-0.852H434.681z"/>
			<path class="st0" d="M453.642,71.75c0.642,0,0.964,0.31,0.964,0.852v8.441h12.775c0.643,0,0.965,0.31,0.965,0.852v1.316
				c0,0.542-0.321,0.852-0.965,0.852h-12.775v22.458c0,4.878,0.885,8.131,2.652,9.68c1.687,1.626,5.062,2.4,9.963,2.4
				c0.642,0,0.964,0.31,0.964,0.93v1.316c0,0.619-0.321,0.929-0.964,0.929c-6.026,0.077-10.204-1.007-12.533-3.175
				c-2.33-2.091-3.535-6.117-3.535-12.003V84.063h-8.678c-0.562,0-0.884-0.31-0.884-0.852v-1.316c0-0.542,0.321-0.852,0.884-0.852
				h8.678v-8.441c0-0.542,0.321-0.852,0.964-0.852H453.642z"/>
			<path class="st0" d="M506.427,81.043c0.562,0,0.884,0.31,0.884,0.852v41.662c0,11.151-5.544,16.727-16.712,16.727
				c-7.391,0-12.613-2.942-15.667-8.75c-0.482-0.697-0.321-1.162,0.402-1.472l1.045-0.542c0.642-0.31,1.125-0.155,1.526,0.387
				c2.572,4.879,6.749,7.357,12.614,7.357c8.918,0,13.337-4.492,13.337-13.552v-5.034c-4.74,1.704-9.481,2.556-14.06,2.556
				c-10.364,0-15.586-4.956-15.586-14.945V81.895c0-0.542,0.321-0.852,0.964-0.852h1.527c0.642,0,0.964,0.31,0.964,0.852v24.238
				c0,8.054,4.178,12.08,12.453,12.08c4.58,0,9.159-0.852,13.739-2.633V81.895c0-0.542,0.321-0.852,0.965-0.852H506.427z"/>
		</g>
		
			<linearGradient id="SVGID_1_" gradientUnits="userSpaceOnUse" x1="187.7235" y1="-966.9701" x2="153.5469" y2="-953.8186" gradientTransform="matrix(0.976 -0.2179 0.2179 0.976 123.8171 984.5294)">
			<stop  offset="0" style="stop-color:#FFFFFF"/>
			<stop  offset="0.053" style="stop-color:#EEF0F4"/>
			<stop  offset="0.2271" style="stop-color:#BBC2D5"/>
			<stop  offset="0.399" style="stop-color:#919CBB"/>
			<stop  offset="0.565" style="stop-color:#707EA6"/>
			<stop  offset="0.7236" style="stop-color:#596998"/>
			<stop  offset="0.8717" style="stop-color:#4B5C8F"/>
			<stop  offset="0.9987" style="stop-color:#46588C"/>
		</linearGradient>
		<path class="st1" d="M80.004,35.453c2.66-2.586,4.269-4.94,5.232-6.528c2.502-4.126,2.751-6.463,3.232-9.689l0.33-2.398
			c-2.042-2.875-6.291-8.08-13.462-12.025C68.714,1.171,62.483,0.325,58.955,0c0,0,11.455,3.691,15.703,13.447
			C78.905,23.202,80.004,35.453,80.004,35.453z"/>
		<linearGradient id="SVGID_2_" gradientUnits="userSpaceOnUse" x1="156.692" y1="155.1287" x2="90.9724" y2="85.7328">
			<stop  offset="0" style="stop-color:#FFFFFF"/>
			<stop  offset="0.0917" style="stop-color:#F9FCFC"/>
			<stop  offset="0.2171" style="stop-color:#E7F4F4"/>
			<stop  offset="0.3622" style="stop-color:#CAE8E8"/>
			<stop  offset="0.5218" style="stop-color:#A2D6D6"/>
			<stop  offset="0.6936" style="stop-color:#6EBFBF"/>
			<stop  offset="0.8724" style="stop-color:#30A3A3"/>
			<stop  offset="0.9987" style="stop-color:#008E8E"/>
		</linearGradient>
		<path class="st2" d="M77.45,149.868c0.286,0.545,2.101,2.543,4.521,4.914c1.381,1.353,2.854,2.792,5.048,4.365
			c1.586,1.138,3.172,2.066,4.945,3c12.46,6.563,28.625,1.792,28.646,1.787c0.491-0.118-8.217,2.725-15.323,0.291
			c-7.769-2.662-14.408-10.264-15.87-18.507c-2.3-12.964,8.733-24.535,16.85-33.048c9.094-9.537,10.188-8.876,16.654-15.296
			c0.607-0.603,11.756-11.331,12.931-22.095c0.221-2.02,1.372-5.476,3.331-7.743c2.456-2.841,5.383-3.763,5.29-3.966
			c-0.188-0.408-12.813,2.63-26.592,9.559c-11.209,5.636-19.249,10.099-29.971,23.72c-8.734,11.096-12.836,20.013-13.645,31.705
			C73.777,135.601,73.533,142.412,77.45,149.868z"/>
		<linearGradient id="SVGID_3_" gradientUnits="userSpaceOnUse" x1="64.5706" y1="61.2732" x2="98.5245" y2="94.5132">
			<stop  offset="0" style="stop-color:#FFFFFF"/>
			<stop  offset="0.0917" style="stop-color:#F9FCFC"/>
			<stop  offset="0.2171" style="stop-color:#E7F4F4"/>
			<stop  offset="0.3622" style="stop-color:#CAE8E8"/>
			<stop  offset="0.5218" style="stop-color:#A2D6D6"/>
			<stop  offset="0.6936" style="stop-color:#6EBFBF"/>
			<stop  offset="0.8724" style="stop-color:#30A3A3"/>
			<stop  offset="0.9987" style="stop-color:#008E8E"/>
		</linearGradient>
		<path class="st3" d="M77.088,149.453c-4.18-4.977-8.485-11.607-10.37-20.013c-2.487-11.093,1.135-20.222,3.527-26.249
			c8.077-20.357,25.435-30.187,31.153-33.425c2.026-1.147,6.904-4.489,14.107-6.043c13.127-2.833,23.616-1.611,26.799-0.976
			c1.478,0.295,2.164,0.818,2.164,0.818s-12.683,2.692-26.462,9.621c-11.209,5.636-19.249,10.099-29.971,23.72
			c-8.734,11.096-12.836,20.013-13.645,31.705c-0.487,7.046-0.731,13.856,3.185,21.313L77.088,149.453z"/>
		<linearGradient id="SVGID_4_" gradientUnits="userSpaceOnUse" x1="99.1059" y1="176.4527" x2="121.7077" y2="137.064">
			<stop  offset="0" style="stop-color:#FFFFFF"/>
			<stop  offset="0.5533" style="stop-color:#FEDA78"/>
			<stop  offset="1" style="stop-color:#FEBE10"/>
		</linearGradient>
		<path class="st4" d="M157.914,130.206c0,0-2.4,7.905-7.956,14.946c0,0-10.994,15.789-31.153,19.262
			c-5.896,1.016-11.201,1.992-18.417-2.644c-8.107-5.208-13.463-15.189-10.776-25.116c0.567-2.094,1.256-3.772,2.062-5.395
			c1.518-3.056,2.874-4.662,2.874-4.662s0.76,10.32,7.908,15.533c4.534,3.307,6.701,3.935,11.289,5.113
			c5.136,1.318,11.94,3.139,22.019-0.203C150.048,142.302,157.914,130.206,157.914,130.206z"/>
		<linearGradient id="SVGID_5_" gradientUnits="userSpaceOnUse" x1="137.1184" y1="111.9781" x2="112.225" y2="149.1324">
			<stop  offset="0" style="stop-color:#FFFFFF"/>
			<stop  offset="0.5533" style="stop-color:#FEDA78"/>
			<stop  offset="1" style="stop-color:#FEBE10"/>
		</linearGradient>
		<path class="st5" d="M153.102,134.324c-6.211,4.189-13.989,4.668-17.383,4.474c-3.753-0.214-10.275-1.702-15.647-5.811
			c-9.405-7.195-12.818-21.324-12.818-21.324s-2.98,2.852-4.875,4.802c-4.464,4.591-6.046,7.33-7.877,9.87v-0.036
			c0,0,0.815,10.627,7.963,15.839c4.534,3.307,6.701,3.935,11.289,5.113c5.136,1.318,11.94,3.139,22.019-0.204
			c14.284-4.737,22.178-16.877,22.178-16.877S156.086,132.312,153.102,134.324z"/>
		
			<linearGradient id="SVGID_6_" gradientUnits="userSpaceOnUse" x1="122.9149" y1="-936.7603" x2="160.2257" y2="-956.8318" gradientTransform="matrix(0.976 -0.2179 0.2179 0.976 123.8171 984.5294)">
			<stop  offset="0.0062" style="stop-color:#FFFFFF"/>
			<stop  offset="0.0362" style="stop-color:#F9F9FB"/>
			<stop  offset="0.5105" style="stop-color:#99A3C0"/>
			<stop  offset="0.8415" style="stop-color:#5D6D9A"/>
			<stop  offset="0.9987" style="stop-color:#46588C"/>
		</linearGradient>
		<path class="st6" d="M59.51,0.189c0,0,7.614,2.569,11.073,6.493c2.993,3.396,6.069,10.238,7.534,16.561
			c1.762,7.606,1.842,11.902,1.842,11.902c-2.607,2.595-4.524,3.845-7.536,5.691c-8.05,4.935-21.95,7.354-21.95,7.354
			s4.047-2.533,5.472-3.454c2.291-1.482,8.794-5.642,11.811-13.605c2.818-7.44,1.182-13.877,0.481-16.501
			C66.494,8.1,62.884,3.787,60.955,1.776l-1.909-1.749"/>
		
			<linearGradient id="SVGID_7_" gradientUnits="userSpaceOnUse" x1="88.4471" y1="-953.4371" x2="150.4733" y2="-882.0067" gradientTransform="matrix(0.976 -0.2179 0.2179 0.976 123.8171 984.5294)">
			<stop  offset="0" style="stop-color:#FFFFFF"/>
			<stop  offset="0.0917" style="stop-color:#F9FCFC"/>
			<stop  offset="0.2171" style="stop-color:#E7F4F4"/>
			<stop  offset="0.3622" style="stop-color:#CAE8E8"/>
			<stop  offset="0.5218" style="stop-color:#A2D6D6"/>
			<stop  offset="0.6936" style="stop-color:#6EBFBF"/>
			<stop  offset="0.8724" style="stop-color:#30A3A3"/>
			<stop  offset="0.9987" style="stop-color:#008E8E"/>
		</linearGradient>
		<path class="st7" d="M6.254,111.374c1.785,0.33,2.581-1.961,8.251-4.678c4.537-2.174,10.283-3.495,13.032-4.004
			c11.635-2.152,19.38-5.32,23.55-7.063c4.222-1.764,12.395-5.114,20.994-12.065c4.784-3.867,10.965-8.863,15.505-17.559
			c4.669-8.942,5.265-18.104,5.721-25.033c0.273-4.151-0.025-9.871-1.054-13.605c0,0-1.147,14.539-11.355,21.934
			S46.723,65.96,34.895,76.166S16.943,91.793,12.323,98.806C7.703,105.82,6.254,111.374,6.254,111.374z"/>
		
			<linearGradient id="SVGID_8_" gradientUnits="userSpaceOnUse" x1="92.3421" y1="-967.9571" x2="135.9006" y2="-899.1173" gradientTransform="matrix(0.976 -0.2179 0.2179 0.976 123.8171 984.5294)">
			<stop  offset="0" style="stop-color:#FFFFFF"/>
			<stop  offset="0.0917" style="stop-color:#F9FCFC"/>
			<stop  offset="0.2171" style="stop-color:#E7F4F4"/>
			<stop  offset="0.3622" style="stop-color:#CAE8E8"/>
			<stop  offset="0.5218" style="stop-color:#A2D6D6"/>
			<stop  offset="0.6936" style="stop-color:#6EBFBF"/>
			<stop  offset="0.8724" style="stop-color:#30A3A3"/>
			<stop  offset="0.9987" style="stop-color:#008E8E"/>
		</linearGradient>
		<path class="st8" d="M6.373,111.408c-5.478-1.013-11.12-25.011,0.114-42.399c6.065-9.388,15.111-13.846,17.867-15.165
			c8.657-4.141,11.326-2.513,26.101-5.618c12.856-2.701,22.034-5.9,29.397-13.079c8.178-7.973,8.891-18.379,8.891-18.379
			s3.852,6.806,3.648,12.272c-0.132,3.551,1.074,13.154-6.538,23.036C74.102,67.33,64.923,70.49,49.35,77.404
			c-12.895,5.725-26.701,11.535-34.586,19.728c-5.862,6.09-8.402,14.242-8.402,14.242"/>
	</g>
</g>
</svg>
